<mxfile host="app.diagrams.net" modified="2022-10-20T15:53:06.685Z" agent="5.0 (Windows NT 10.0; Win64; x64) AppleWebKit/537.36 (KHTML, like Gecko) Chrome/106.0.0.0 Safari/537.36" etag="GyDnPVVEdiWr12_U68RK" version="20.4.2" type="github">
  <diagram id="C5RBs43oDa-KdzZeNtuy" name="Page-1">
    <mxGraphModel dx="1422" dy="754" grid="1" gridSize="10" guides="1" tooltips="1" connect="1" arrows="1" fold="1" page="1" pageScale="1" pageWidth="827" pageHeight="1169" math="0" shadow="0">
      <root>
        <mxCell id="WIyWlLk6GJQsqaUBKTNV-0" />
        <mxCell id="WIyWlLk6GJQsqaUBKTNV-1" parent="WIyWlLk6GJQsqaUBKTNV-0" />
        <mxCell id="ogrLwFTS5YejvwNIMe1k-0" value="&lt;b&gt;&lt;font style=&quot;font-size: 20px;&quot;&gt;Views&lt;/font&gt;&lt;/b&gt;" style="html=1;fillColor=#d5e8d4;strokeColor=#82b366;" vertex="1" parent="WIyWlLk6GJQsqaUBKTNV-1">
          <mxGeometry x="220" y="10" width="390" height="50" as="geometry" />
        </mxCell>
        <mxCell id="ogrLwFTS5YejvwNIMe1k-5" style="edgeStyle=orthogonalEdgeStyle;rounded=0;orthogonalLoop=1;jettySize=auto;html=1;entryX=0.5;entryY=1;entryDx=0;entryDy=0;fontSize=20;" edge="1" parent="WIyWlLk6GJQsqaUBKTNV-1" source="ogrLwFTS5YejvwNIMe1k-1" target="ogrLwFTS5YejvwNIMe1k-0">
          <mxGeometry relative="1" as="geometry">
            <Array as="points">
              <mxPoint x="414" y="70" />
              <mxPoint x="415" y="70" />
            </Array>
          </mxGeometry>
        </mxCell>
        <mxCell id="ogrLwFTS5YejvwNIMe1k-1" value="EditView" style="html=1;fillColor=#d5e8d4;strokeColor=#82b366;" vertex="1" parent="WIyWlLk6GJQsqaUBKTNV-1">
          <mxGeometry x="359" y="90" width="110" height="50" as="geometry" />
        </mxCell>
        <mxCell id="ogrLwFTS5YejvwNIMe1k-4" style="edgeStyle=orthogonalEdgeStyle;rounded=0;orthogonalLoop=1;jettySize=auto;html=1;entryX=0.25;entryY=1;entryDx=0;entryDy=0;fontSize=20;" edge="1" parent="WIyWlLk6GJQsqaUBKTNV-1" source="ogrLwFTS5YejvwNIMe1k-2" target="ogrLwFTS5YejvwNIMe1k-0">
          <mxGeometry relative="1" as="geometry" />
        </mxCell>
        <mxCell id="ogrLwFTS5YejvwNIMe1k-2" value="QuizView" style="html=1;fillColor=#d5e8d4;strokeColor=#82b366;" vertex="1" parent="WIyWlLk6GJQsqaUBKTNV-1">
          <mxGeometry x="220" y="90" width="110" height="50" as="geometry" />
        </mxCell>
        <mxCell id="ogrLwFTS5YejvwNIMe1k-6" style="edgeStyle=orthogonalEdgeStyle;rounded=0;orthogonalLoop=1;jettySize=auto;html=1;entryX=0.75;entryY=1;entryDx=0;entryDy=0;fontSize=20;" edge="1" parent="WIyWlLk6GJQsqaUBKTNV-1" source="ogrLwFTS5YejvwNIMe1k-3" target="ogrLwFTS5YejvwNIMe1k-0">
          <mxGeometry relative="1" as="geometry" />
        </mxCell>
        <mxCell id="ogrLwFTS5YejvwNIMe1k-3" value="CreateView" style="html=1;fillColor=#d5e8d4;strokeColor=#82b366;" vertex="1" parent="WIyWlLk6GJQsqaUBKTNV-1">
          <mxGeometry x="500" y="90" width="110" height="50" as="geometry" />
        </mxCell>
        <mxCell id="ogrLwFTS5YejvwNIMe1k-8" value="&lt;b&gt;&lt;font style=&quot;font-size: 20px;&quot;&gt;ViewModels&lt;/font&gt;&lt;/b&gt;" style="html=1;fillColor=#dae8fc;strokeColor=#6c8ebf;" vertex="1" parent="WIyWlLk6GJQsqaUBKTNV-1">
          <mxGeometry x="220" y="360" width="390" height="50" as="geometry" />
        </mxCell>
        <mxCell id="ogrLwFTS5YejvwNIMe1k-9" style="edgeStyle=orthogonalEdgeStyle;rounded=0;orthogonalLoop=1;jettySize=auto;html=1;entryX=0.5;entryY=1;entryDx=0;entryDy=0;fontSize=20;" edge="1" source="ogrLwFTS5YejvwNIMe1k-10" target="ogrLwFTS5YejvwNIMe1k-8" parent="WIyWlLk6GJQsqaUBKTNV-1">
          <mxGeometry relative="1" as="geometry" />
        </mxCell>
        <mxCell id="ogrLwFTS5YejvwNIMe1k-10" value="EditQuizViewModel" style="html=1;fillColor=#dae8fc;strokeColor=#6c8ebf;" vertex="1" parent="WIyWlLk6GJQsqaUBKTNV-1">
          <mxGeometry x="340" y="440" width="129" height="50" as="geometry" />
        </mxCell>
        <mxCell id="ogrLwFTS5YejvwNIMe1k-11" style="edgeStyle=orthogonalEdgeStyle;rounded=0;orthogonalLoop=1;jettySize=auto;html=1;entryX=0.25;entryY=1;entryDx=0;entryDy=0;fontSize=20;" edge="1" source="ogrLwFTS5YejvwNIMe1k-12" target="ogrLwFTS5YejvwNIMe1k-8" parent="WIyWlLk6GJQsqaUBKTNV-1">
          <mxGeometry relative="1" as="geometry" />
        </mxCell>
        <mxCell id="ogrLwFTS5YejvwNIMe1k-12" value="QuizViewModel" style="html=1;fillColor=#dae8fc;strokeColor=#6c8ebf;" vertex="1" parent="WIyWlLk6GJQsqaUBKTNV-1">
          <mxGeometry x="220" y="440" width="110" height="50" as="geometry" />
        </mxCell>
        <mxCell id="ogrLwFTS5YejvwNIMe1k-13" style="edgeStyle=orthogonalEdgeStyle;rounded=0;orthogonalLoop=1;jettySize=auto;html=1;entryX=0.75;entryY=1;entryDx=0;entryDy=0;fontSize=20;" edge="1" source="ogrLwFTS5YejvwNIMe1k-14" target="ogrLwFTS5YejvwNIMe1k-8" parent="WIyWlLk6GJQsqaUBKTNV-1">
          <mxGeometry relative="1" as="geometry" />
        </mxCell>
        <mxCell id="ogrLwFTS5YejvwNIMe1k-14" value="CreateQuizViewModel" style="html=1;fillColor=#dae8fc;strokeColor=#6c8ebf;" vertex="1" parent="WIyWlLk6GJQsqaUBKTNV-1">
          <mxGeometry x="480" y="440" width="130" height="50" as="geometry" />
        </mxCell>
        <mxCell id="ogrLwFTS5YejvwNIMe1k-18" value="&lt;b&gt;&lt;font style=&quot;font-size: 20px;&quot;&gt;Models&lt;/font&gt;&lt;/b&gt;" style="html=1;fillColor=#ffe6cc;strokeColor=#d79b00;" vertex="1" parent="WIyWlLk6GJQsqaUBKTNV-1">
          <mxGeometry x="219" y="720" width="390" height="50" as="geometry" />
        </mxCell>
        <mxCell id="ogrLwFTS5YejvwNIMe1k-21" style="edgeStyle=orthogonalEdgeStyle;rounded=0;orthogonalLoop=1;jettySize=auto;html=1;entryX=0.25;entryY=1;entryDx=0;entryDy=0;fontSize=20;" edge="1" source="ogrLwFTS5YejvwNIMe1k-22" target="ogrLwFTS5YejvwNIMe1k-18" parent="WIyWlLk6GJQsqaUBKTNV-1">
          <mxGeometry relative="1" as="geometry" />
        </mxCell>
        <mxCell id="ogrLwFTS5YejvwNIMe1k-22" value="QuizModel" style="html=1;fillColor=#ffe6cc;strokeColor=#d79b00;" vertex="1" parent="WIyWlLk6GJQsqaUBKTNV-1">
          <mxGeometry x="219" y="800" width="110" height="50" as="geometry" />
        </mxCell>
        <mxCell id="ogrLwFTS5YejvwNIMe1k-26" style="edgeStyle=orthogonalEdgeStyle;rounded=0;orthogonalLoop=1;jettySize=auto;html=1;fontSize=20;" edge="1" parent="WIyWlLk6GJQsqaUBKTNV-1" source="ogrLwFTS5YejvwNIMe1k-25" target="ogrLwFTS5YejvwNIMe1k-18">
          <mxGeometry relative="1" as="geometry" />
        </mxCell>
        <mxCell id="ogrLwFTS5YejvwNIMe1k-25" value="QuestionModel" style="html=1;fillColor=#ffe6cc;strokeColor=#d79b00;" vertex="1" parent="WIyWlLk6GJQsqaUBKTNV-1">
          <mxGeometry x="359" y="800" width="110" height="50" as="geometry" />
        </mxCell>
      </root>
    </mxGraphModel>
  </diagram>
</mxfile>
